0
SECTION
2
HEADER
9
$INSUNITS
70
4
9
$ACADVER
1
AC1014
9
$HANDSEED
5
FFFF
0
ENDSEC
0
SECTION
2
TABLES
0
TABLE
2
VPORT
5
8
100
AcDbSymbolTable
0
ENDTAB
0
TABLE
2
LTYPE
5
5
100
AcDbSymbolTable
0
LTYPE
5
14
100
AcDbSymbolTableRecord
100
AcDbLinetypeTableRecord
2
BYBLOCK
70
0
0
LTYPE
5
15
100
AcDbSymbolTableRecord
100
AcDbLinetypeTableRecord
2
BYLAYER
70
0
0
ENDTAB
0
TABLE
2
LAYER
5
2
100
AcDbSymbolTable
70
2
0
LAYER
5
50
100
AcDbSymbolTableRecord
100
AcDbLayerTableRecord
2
0
70
0
6
CONTINUOUS
0
ENDTAB
0
TABLE
2
STYLE
5
3
100
AcDbSymbolTable
70
1
0
STYLE
5
11
100
AcDbSymbolTableRecord
100
AcDbTextStyleTableRecord
2
STANDARD
70
0
0
ENDTAB
0
TABLE
2
VIEW
5
6
100
AcDbSymbolTable
70
0
0
ENDTAB
0
TABLE
2
UCS
5
7
100
AcDbSymbolTable
70
0
0
ENDTAB
0
TABLE
2
APPID
5
9
100
AcDbSymbolTable
70
2
0
APPID
5
12
100
AcDbSymbolTableRecord
100
AcDbRegAppTableRecord
2
ACAD
70
0
0
ENDTAB
0
TABLE
2
DIMSTYLE
5
A
100
AcDbSymbolTable
70
1
0
ENDTAB
0
TABLE
2
BLOCK_RECORD
5
1
100
AcDbSymbolTable
70
1
0
BLOCK_RECORD
5
1F
100
AcDbSymbolTableRecord
100
AcDbBlockTableRecord
2
*MODEL_SPACE
0
BLOCK_RECORD
5
1B
100
AcDbSymbolTableRecord
100
AcDbBlockTableRecord
2
*PAPER_SPACE
0
ENDTAB
0
ENDSEC
0
SECTION
2
BLOCKS
0
BLOCK
5
20
100
AcDbEntity
100
AcDbBlockBegin
2
*MODEL_SPACE
0
ENDBLK
5
21
100
AcDbEntity
100
AcDbBlockEnd
0
BLOCK
5
1C
100
AcDbEntity
100
AcDbBlockBegin
2
*PAPER_SPACE
0
ENDBLK
5
1D
100
AcDbEntity
100
AcDbBlockEnd
0
ENDSEC
0
SECTION
2
ENTITIES
0
LWPOLYLINE
5
100
100
AcDbEntity
8
0
100
AcDbPolyline
90
76
70
1
43
0.0
10
0
20
-120
10
4.5000000000000018
20
-120
10
4.5000000000000018
20
-100
10
0
20
-100
10
0
20
-80
10
4.5000000000000018
20
-80
10
4.5000000000000018
20
-60
10
0
20
-60
10
0
20
-40
10
4.5000000000000018
20
-40
10
4.5000000000000018
20
-20
10
0
20
-20
10
0
20
0
10
20.000000596046448
20
0
10
20.000000596046448
20
-4.5
10
40.000000596046448
20
-4.5
10
40.000000596046448
20
0
10
59.000000596046448
20
0
10
59.000000596046448
20
-4.5
10
79.000000596046448
20
-4.5
10
79.000000596046448
20
0
10
98.000000596046448
20
0
10
98.000000596046448
20
-4.5
10
118.00000059604645
20
-4.5
10
118.00000059604645
20
0
10
137.00000059604645
20
0
10
137.00000059604645
20
-4.5
10
157.00000059604645
20
-4.5
10
157.00000059604645
20
0
10
176.00000059604645
20
0
10
176.00000059604645
20
-4.5
10
196.00000059604645
20
-4.5
10
196.00000059604645
20
0
10
215.00000059604645
20
0
10
215.00000059604645
20
-4.5
10
235.00000059604645
20
-4.5
10
235.00000059604645
20
0
10
255
20
0
10
255
20
-20
10
250.5
20
-20
10
250.5
20
-39.999999999999993
10
255
20
-39.999999999999993
10
255
20
-60
10
250.5
20
-60
10
250.5
20
-80
10
255
20
-80
10
255
20
-100
10
250.5
20
-100
10
250.5
20
-120
10
255
20
-120
10
255
20
-140
10
235
20
-140
10
235
20
-135.5
10
215
20
-135.5
10
215
20
-140
10
196
20
-140
10
196
20
-135.5
10
176
20
-135.5
10
176
20
-140
10
157
20
-140
10
157
20
-135.5
10
137
20
-135.5
10
137
20
-140
10
118
20
-140
10
118
20
-135.5
10
98
20
-135.5
10
98
20
-140
10
79
20
-140
10
79
20
-135.5
10
59
20
-135.5
10
59
20
-140
10
40
20
-140
10
40
20
-135.5
10
20
20
-135.5
10
20
20
-140
10
0
20
-140
0
ENDSEC
0
SECTION
2
OBJECTS
0
DICTIONARY
5
C
100
AcDbDictionary
3
ACAD_GROUP
350
D
3
ACAD_MLINESTYLE
350
17
0
DICTIONARY
5
D
100
AcDbDictionary
0
DICTIONARY
5
1A
330
C
100
AcDbDictionary
0
DICTIONARY
5
17
100
AcDbDictionary
0
ENDSEC
0
EOF
