0
SECTION
2
HEADER
9
$INSUNITS
70
4
9
$ACADVER
1
AC1014
9
$HANDSEED
5
FFFF
0
ENDSEC
0
SECTION
2
TABLES
0
TABLE
2
VPORT
5
8
100
AcDbSymbolTable
0
ENDTAB
0
TABLE
2
LTYPE
5
5
100
AcDbSymbolTable
0
LTYPE
5
14
100
AcDbSymbolTableRecord
100
AcDbLinetypeTableRecord
2
BYBLOCK
70
0
0
LTYPE
5
15
100
AcDbSymbolTableRecord
100
AcDbLinetypeTableRecord
2
BYLAYER
70
0
0
ENDTAB
0
TABLE
2
LAYER
5
2
100
AcDbSymbolTable
70
2
0
LAYER
5
50
100
AcDbSymbolTableRecord
100
AcDbLayerTableRecord
2
0
70
0
6
CONTINUOUS
0
ENDTAB
0
TABLE
2
STYLE
5
3
100
AcDbSymbolTable
70
1
0
STYLE
5
11
100
AcDbSymbolTableRecord
100
AcDbTextStyleTableRecord
2
STANDARD
70
0
0
ENDTAB
0
TABLE
2
VIEW
5
6
100
AcDbSymbolTable
70
0
0
ENDTAB
0
TABLE
2
UCS
5
7
100
AcDbSymbolTable
70
0
0
ENDTAB
0
TABLE
2
APPID
5
9
100
AcDbSymbolTable
70
2
0
APPID
5
12
100
AcDbSymbolTableRecord
100
AcDbRegAppTableRecord
2
ACAD
70
0
0
ENDTAB
0
TABLE
2
DIMSTYLE
5
A
100
AcDbSymbolTable
70
1
0
ENDTAB
0
TABLE
2
BLOCK_RECORD
5
1
100
AcDbSymbolTable
70
1
0
BLOCK_RECORD
5
1F
100
AcDbSymbolTableRecord
100
AcDbBlockTableRecord
2
*MODEL_SPACE
0
BLOCK_RECORD
5
1B
100
AcDbSymbolTableRecord
100
AcDbBlockTableRecord
2
*PAPER_SPACE
0
ENDTAB
0
ENDSEC
0
SECTION
2
BLOCKS
0
BLOCK
5
20
100
AcDbEntity
100
AcDbBlockBegin
2
*MODEL_SPACE
0
ENDBLK
5
21
100
AcDbEntity
100
AcDbBlockEnd
0
BLOCK
5
1C
100
AcDbEntity
100
AcDbBlockBegin
2
*PAPER_SPACE
0
ENDBLK
5
1D
100
AcDbEntity
100
AcDbBlockEnd
0
ENDSEC
0
SECTION
2
ENTITIES
0
LWPOLYLINE
5
100
100
AcDbEntity
8
0
100
AcDbPolyline
90
4
70
1
43
0.0
10
103.49999999999997
20
-25
10
103.49999999999997
20
-15
10
102.5
20
-15
10
102.5
20
-25
0
LWPOLYLINE
5
101
100
AcDbEntity
8
0
100
AcDbPolyline
90
4
70
1
43
0.0
10
106.49999999999999
20
-25
10
106.49999999999999
20
-15
10
105.49999999999999
20
-15
10
105.49999999999999
20
-25
0
LWPOLYLINE
5
102
100
AcDbEntity
8
0
100
AcDbPolyline
90
4
70
1
43
0.0
10
109.5
20
-25
10
109.5
20
-15
10
108.5
20
-15
10
108.5
20
-25
0
LWPOLYLINE
5
103
100
AcDbEntity
8
0
100
AcDbPolyline
90
4
70
1
43
0.0
10
112.49999999999999
20
-25
10
112.49999999999999
20
-15
10
111.49999999999999
20
-15
10
111.49999999999999
20
-25
0
LWPOLYLINE
5
104
100
AcDbEntity
8
0
100
AcDbPolyline
90
4
70
1
43
0.0
10
115.49999999999999
20
-25
10
115.49999999999999
20
-15
10
114.5
20
-15
10
114.5
20
-25
0
LWPOLYLINE
5
105
100
AcDbEntity
8
0
100
AcDbPolyline
90
4
70
1
43
0.0
10
100.49999999999999
20
-50
10
100.49999999999999
20
-39
10
88.499999999999972
20
-39
10
88.499999999999972
20
-50
0
LWPOLYLINE
5
106
100
AcDbEntity
8
0
100
AcDbPolyline
90
44
70
1
43
0.0
10
5.5511151231257827e-16
20
-40
10
4.5
20
-40
10
4.5
20
-25
10
5.5511151231257827e-16
20
-25
10
5.5511151231257827e-16
20
-10
10
4.5
20
-10
10
4.5
20
0
10
20
20
0
10
20
20
4.5
10
40
20
4.5
10
40
20
2.1063716212647744e-23
10
60
20
0
10
60
20
4.5
10
80
20
4.5
10
80
20
2.1063716212647744e-23
10
100
20
0
10
100
20
4.5
10
120
20
4.5
10
120
20
2.1063716212647744e-23
10
135.5
20
0
10
135.5
20
-10
10
139.99999999999997
20
-10
10
139.99999999999997
20
-25
10
135.5
20
-25
10
135.5
20
-40
10
139.99999999999997
20
-40
10
139.99999999999997
20
-55
10
135.5
20
-55
10
135.5
20
-65
10
120.00000059604645
20
-65
10
120
20
-69.5
10
100
20
-69.5
10
100
20
-65
10
80.000000596046448
20
-65
10
80
20
-69.5
10
60
20
-69.5
10
60
20
-65
10
40.000000596046448
20
-65
10
40.000000000000007
20
-69.5
10
20
20
-69.5
10
20
20
-65
10
4.5
20
-65
10
4.5
20
-55
10
5.5511151231257827e-16
20
-55
0
ENDSEC
0
SECTION
2
OBJECTS
0
DICTIONARY
5
C
100
AcDbDictionary
3
ACAD_GROUP
350
D
3
ACAD_MLINESTYLE
350
17
0
DICTIONARY
5
D
100
AcDbDictionary
0
DICTIONARY
5
1A
330
C
100
AcDbDictionary
0
DICTIONARY
5
17
100
AcDbDictionary
0
ENDSEC
0
EOF
