0
SECTION
2
HEADER
9
$INSUNITS
70
4
9
$ACADVER
1
AC1014
9
$HANDSEED
5
FFFF
0
ENDSEC
0
SECTION
2
TABLES
0
TABLE
2
VPORT
5
8
100
AcDbSymbolTable
0
ENDTAB
0
TABLE
2
LTYPE
5
5
100
AcDbSymbolTable
0
LTYPE
5
14
100
AcDbSymbolTableRecord
100
AcDbLinetypeTableRecord
2
BYBLOCK
70
0
0
LTYPE
5
15
100
AcDbSymbolTableRecord
100
AcDbLinetypeTableRecord
2
BYLAYER
70
0
0
ENDTAB
0
TABLE
2
LAYER
5
2
100
AcDbSymbolTable
70
2
0
LAYER
5
50
100
AcDbSymbolTableRecord
100
AcDbLayerTableRecord
2
0
70
0
6
CONTINUOUS
0
ENDTAB
0
TABLE
2
STYLE
5
3
100
AcDbSymbolTable
70
1
0
STYLE
5
11
100
AcDbSymbolTableRecord
100
AcDbTextStyleTableRecord
2
STANDARD
70
0
0
ENDTAB
0
TABLE
2
VIEW
5
6
100
AcDbSymbolTable
70
0
0
ENDTAB
0
TABLE
2
UCS
5
7
100
AcDbSymbolTable
70
0
0
ENDTAB
0
TABLE
2
APPID
5
9
100
AcDbSymbolTable
70
2
0
APPID
5
12
100
AcDbSymbolTableRecord
100
AcDbRegAppTableRecord
2
ACAD
70
0
0
ENDTAB
0
TABLE
2
DIMSTYLE
5
A
100
AcDbSymbolTable
70
1
0
ENDTAB
0
TABLE
2
BLOCK_RECORD
5
1
100
AcDbSymbolTable
70
1
0
BLOCK_RECORD
5
1F
100
AcDbSymbolTableRecord
100
AcDbBlockTableRecord
2
*MODEL_SPACE
0
BLOCK_RECORD
5
1B
100
AcDbSymbolTableRecord
100
AcDbBlockTableRecord
2
*PAPER_SPACE
0
ENDTAB
0
ENDSEC
0
SECTION
2
BLOCKS
0
BLOCK
5
20
100
AcDbEntity
100
AcDbBlockBegin
2
*MODEL_SPACE
0
ENDBLK
5
21
100
AcDbEntity
100
AcDbBlockEnd
0
BLOCK
5
1C
100
AcDbEntity
100
AcDbBlockBegin
2
*PAPER_SPACE
0
ENDBLK
5
1D
100
AcDbEntity
100
AcDbBlockEnd
0
ENDSEC
0
SECTION
2
ENTITIES
0
CIRCLE
5
100
100
AcDbEntity
8
0
100
AcDbCircle
10
-125.44787330568406
20
-29.361846398849394
30
0
40
0.50000000000000711
210
0
220
-0
230
1
0
CIRCLE
5
101
100
AcDbEntity
8
0
100
AcDbCircle
10
-123.64326958567588
20
-30.403737332253655
30
0
40
0.50000000000000711
210
0
220
-0
230
1
0
CIRCLE
5
102
100
AcDbEntity
8
0
100
AcDbCircle
10
-122.30384447291401
20
-32.000005377000576
30
0
40
0.50000000000000711
210
0
220
-0
230
1
0
CIRCLE
5
103
100
AcDbEntity
8
0
100
AcDbCircle
10
-121.59115240380689
20
-33.958117048486471
30
0
40
0.50000000000000711
210
0
220
-0
230
1
0
CIRCLE
5
104
100
AcDbEntity
8
0
100
AcDbCircle
10
-121.59115456010355
20
-36.041895180479585
30
0
40
0.50000000000000722
210
-0
220
0
230
1
0
CIRCLE
5
105
100
AcDbEntity
8
0
100
AcDbCircle
10
-122.30385068172281
20
-38.000005376971693
30
0
40
0.50000000000000711
210
-0
220
0
230
1
0
CIRCLE
5
106
100
AcDbEntity
8
0
100
AcDbCircle
10
-123.64327909812282
20
-39.596270649637084
30
0
40
0.50000000000000733
210
-0
220
0
230
1
0
CIRCLE
5
107
100
AcDbEntity
8
0
100
AcDbCircle
10
-125.44788497442768
20
-40.638157848225944
30
0
40
0.50000000000000711
210
-0
220
0
230
1
0
CIRCLE
5
108
100
AcDbEntity
8
0
100
AcDbCircle
10
-127.5000062088088
20
-40.999999999971088
30
0
40
0.50000000000000711
210
0
220
-0
230
1
0
CIRCLE
5
109
100
AcDbEntity
8
0
100
AcDbCircle
10
-129.55212669431589
20
-40.638153601150613
30
0
40
0.50000000000000722
210
0
220
-0
230
1
0
CIRCLE
5
110
100
AcDbEntity
8
0
100
AcDbCircle
10
-131.35673041432415
20
-39.596262667746345
30
0
40
0.50000000000000711
210
0
220
-0
230
1
0
CIRCLE
5
111
100
AcDbEntity
8
0
100
AcDbCircle
10
-132.69615552708598
20
-37.999994622999402
30
0
40
0.50000000000000733
210
0
220
-0
230
1
0
CIRCLE
5
112
100
AcDbEntity
8
0
100
AcDbCircle
10
-133.40884759619311
20
-36.041882951513514
30
0
40
0.50000000000000722
210
0
220
-0
230
1
0
CIRCLE
5
113
100
AcDbEntity
8
0
100
AcDbCircle
10
-133.40884543989642
20
-33.9581048195204
30
0
40
0.50000000000000711
210
0
220
-0
230
1
0
CIRCLE
5
114
100
AcDbEntity
8
0
100
AcDbCircle
10
-132.69614931827721
20
-31.999994623028325
30
0
40
0.50000000000000711
210
0
220
-0
230
1
0
CIRCLE
5
115
100
AcDbEntity
8
0
100
AcDbCircle
10
-131.35672090187717
20
-30.403729350362916
30
0
40
0.50000000000000733
210
0
220
-0
230
1
0
CIRCLE
5
116
100
AcDbEntity
8
0
100
AcDbCircle
10
-129.55211502557233
20
-29.361842151774049
30
0
40
0.50000000000000711
210
0
220
-0
230
1
0
CIRCLE
5
117
100
AcDbEntity
8
0
100
AcDbCircle
10
-125.49999999999459
20
-31.535898384887624
30
0
40
0.50000000000000711
210
0
220
-0
230
1
0
CIRCLE
5
118
100
AcDbEntity
8
0
100
AcDbCircle
10
-124.03589838487024
20
-33.000000000024684
30
0
40
0.50000000000000711
210
0
220
-0
230
1
0
CIRCLE
5
119
100
AcDbEntity
8
0
100
AcDbCircle
10
-123.50000000001927
20
-35.000000000017373
30
0
40
0.50000000000000711
210
-0
220
0
230
1
0
CIRCLE
5
120
100
AcDbEntity
8
0
100
AcDbCircle
10
-124.03589838488763
20
-37.000000000005414
30
0
40
0.50000000000000711
210
-0
220
0
230
1
0
CIRCLE
5
121
100
AcDbEntity
8
0
100
AcDbCircle
10
-125.5000000000247
20
-38.464101615129763
30
0
40
0.50000000000000711
210
-0
220
0
230
1
0
CIRCLE
5
122
100
AcDbEntity
8
0
100
AcDbCircle
10
-127.50000000001737
20
-38.999999999980723
30
0
40
0.50000000000000711
210
0
220
-0
230
1
0
CIRCLE
5
123
100
AcDbEntity
8
0
100
AcDbCircle
10
-129.5000000000054
20
-38.464101615112376
30
0
40
0.50000000000000722
210
0
220
-0
230
1
0
CIRCLE
5
124
100
AcDbEntity
8
0
100
AcDbCircle
10
-130.96410161512975
20
-36.999999999975316
30
0
40
0.50000000000000733
210
0
220
-0
230
1
0
CIRCLE
5
125
100
AcDbEntity
8
0
100
AcDbCircle
10
-131.49999999998073
20
-34.999999999982627
30
0
40
0.50000000000000711
210
0
220
-0
230
1
0
CIRCLE
5
126
100
AcDbEntity
8
0
100
AcDbCircle
10
-130.96410161511238
20
-32.999999999994586
30
0
40
0.50000000000000711
210
0
220
-0
230
1
0
CIRCLE
5
127
100
AcDbEntity
8
0
100
AcDbCircle
10
-129.49999999997533
20
-31.53589838487024
30
0
40
0.50000000000000711
210
0
220
-0
230
1
0
CIRCLE
5
128
100
AcDbEntity
8
0
100
AcDbCircle
10
-125.76794608803235
20
-34.000005376995674
30
0
40
0.50000000000000711
210
0
220
-0
230
1
0
CIRCLE
5
129
100
AcDbEntity
8
0
100
AcDbCircle
10
-125.76795229684657
20
-36.000005376986039
30
0
40
0.50000000000000711
210
-0
220
0
230
1
0
CIRCLE
5
130
100
AcDbEntity
8
0
100
AcDbCircle
10
-127.50000620881423
20
-36.999999999990365
30
0
40
0.50000000000000711
210
0
220
-0
230
1
0
CIRCLE
5
131
100
AcDbEntity
8
0
100
AcDbCircle
10
-129.23205391196763
20
-35.999994623004326
30
0
40
0.50000000000000733
210
0
220
-0
230
1
0
CIRCLE
5
132
100
AcDbEntity
8
0
100
AcDbCircle
10
-129.2320477031534
20
-33.999994623013983
30
0
40
0.50000000000000711
210
0
220
-0
230
1
0
CIRCLE
5
133
100
AcDbEntity
8
0
100
AcDbCircle
10
-164.75
20
-128
30
0
40
1.7000000000000171
210
0
220
-0
230
1
0
LWPOLYLINE
5
134
100
AcDbEntity
8
0
100
AcDbPolyline
90
4
70
1
43
0.0
10
-91.75
20
-125
10
-91.75
20
-100.5
10
-163.25000000000003
20
-100.5
10
-163.25000000000003
20
-125
0
CIRCLE
5
135
100
AcDbEntity
8
0
100
AcDbCircle
10
-127.5
20
-35
30
0
40
0.50000000000000711
210
0
220
-0
230
1
0
CIRCLE
5
136
100
AcDbEntity
8
0
100
AcDbCircle
10
-127.4999937911912
20
-29.000000000028912
30
0
40
0.50000000000000711
210
0
220
-0
230
1
0
CIRCLE
5
137
100
AcDbEntity
8
0
100
AcDbCircle
10
-90.25
20
-128
30
0
40
1.6999999999999993
210
0
220
-0
230
1
0
LWPOLYLINE
5
138
100
AcDbEntity
8
0
100
AcDbPolyline
90
4
70
1
43
0.0
10
-229.71218487394967
20
-68.50047673701205
42
-0.95080442104346707
10
-170.28781512605042
20
-68.500476737012136
42
-1.0255360246871161
10
-170.2878151260505
20
-71.499523262987822
42
-0.95080442104346963
10
-229.71218487394958
20
-71.49952326298785
42
-1.0255360246871039
0
CIRCLE
5
139
100
AcDbEntity
8
0
100
AcDbCircle
10
-164.75
20
-97.5
30
0
40
1.7000000000000171
210
0
220
-0
230
1
0
CIRCLE
5
140
100
AcDbEntity
8
0
100
AcDbCircle
10
-127.49999379118577
20
-33.000000000009635
30
0
40
0.50000000000000711
210
0
220
-0
230
1
0
CIRCLE
5
141
100
AcDbEntity
8
0
100
AcDbCircle
10
-127.49999999998263
20
-31.000000000019273
30
0
40
0.50000000000000711
210
0
220
-0
230
1
0
CIRCLE
5
142
100
AcDbEntity
8
0
100
AcDbCircle
10
-90.25
20
-97.5
30
0
40
1.6999999999999993
210
0
220
-0
230
1
0
LWPOLYLINE
5
143
100
AcDbEntity
8
0
100
AcDbPolyline
90
4
70
1
43
0.0
10
-84.712184873949582
20
-68.50047673701215
42
-0.95080442104346896
10
-25.287815126050429
20
-68.500476737012136
42
-1.0255360246871086
10
-25.287815126050432
20
-71.499523262987864
42
-0.95080442104346796
10
-84.712184873949568
20
-71.499523262987807
42
-1.0255360246871086
0
LWPOLYLINE
5
144
100
AcDbEntity
8
0
100
AcDbPolyline
90
76
70
1
43
0.0
10
0
20
-20
10
-4.4999999999999929
20
-20
10
-4.4999999999999929
20
-40
10
0
20
-40
10
0
20
-60
10
-4.4999999999999929
20
-60
10
-4.4999999999999929
20
-80
10
0
20
-80
10
0
20
-100
10
-4.4999999999999929
20
-100
10
-4.4999999999999929
20
-120
10
0
20
-120
10
0
20
-140
10
-20
20
-140
10
-20
20
-135.5
10
-40
20
-135.5
10
-40
20
-140
10
-59
20
-140
10
-59
20
-135.5
10
-79
20
-135.5
10
-79
20
-140
10
-98
20
-140
10
-98
20
-135.5
10
-118
20
-135.5
10
-118
20
-140
10
-137
20
-140
10
-137
20
-135.5
10
-157
20
-135.5
10
-157
20
-140
10
-176
20
-140
10
-176
20
-135.5
10
-196
20
-135.5
10
-196
20
-140
10
-215
20
-140
10
-215
20
-135.5
10
-235
20
-135.5
10
-235
20
-140
10
-255
20
-140
10
-255
20
-120
10
-250.5
20
-120
10
-250.5
20
-100
10
-255
20
-100
10
-255
20
-80
10
-250.5
20
-80
10
-250.5
20
-60
10
-255
20
-60
10
-255
20
-40
10
-250.5
20
-40
10
-250.5
20
-20
10
-255
20
-20
10
-255
20
0
10
-235
20
0
10
-235
20
-4.5000000000000018
10
-215
20
-4.5000000000000018
10
-215
20
0
10
-196
20
0
10
-196
20
-4.5000000000000018
10
-176
20
-4.5000000000000018
10
-176
20
0
10
-157
20
0
10
-157
20
-4.5000000000000018
10
-137
20
-4.5000000000000018
10
-137
20
0
10
-118
20
0
10
-118
20
-4.5000000000000018
10
-98
20
-4.5000000000000018
10
-98
20
0
10
-79
20
0
10
-79
20
-4.5000000000000018
10
-59
20
-4.5000000000000018
10
-59
20
0
10
-40
20
0
10
-40
20
-4.5000000000000018
10
-20
20
-4.5000000000000018
10
-20
20
0
10
0
20
0
0
CIRCLE
5
145
100
AcDbEntity
8
0
100
AcDbCircle
10
-150.25000000000003
20
-70.000001103789842
30
0
40
2.5999999999999979
210
0
220
-0
230
1
0
CIRCLE
5
146
100
AcDbEntity
8
0
100
AcDbCircle
10
-104.74999999999997
20
-70.000001103789629
30
0
40
2.5999999999999979
210
0
220
-0
230
1
0
ENDSEC
0
SECTION
2
OBJECTS
0
DICTIONARY
5
C
100
AcDbDictionary
3
ACAD_GROUP
350
D
3
ACAD_MLINESTYLE
350
17
0
DICTIONARY
5
D
100
AcDbDictionary
0
DICTIONARY
5
1A
330
C
100
AcDbDictionary
0
DICTIONARY
5
17
100
AcDbDictionary
0
ENDSEC
0
EOF
